<svg width="239" height="56" viewBox="0 0 239 56" fill="none" xmlns="http://www.w3.org/2000/svg">
<path d="M56.7216 36V18.5455H59.8835V26.5653H60.0966L66.9062 18.5455H70.767L64.017 26.3778L70.8267 36H67.0256L61.8182 28.517L59.8835 30.8011V36H56.7216ZM75.4326 28.3295V36H72.3474V18.5455H75.3645V25.1335H75.5179C75.8247 24.3949 76.2991 23.8125 76.9412 23.3864C77.5889 22.9545 78.4128 22.7386 79.4128 22.7386C80.3218 22.7386 81.1145 22.929 81.7906 23.3097C82.4667 23.6903 82.9895 24.2472 83.3588 24.9801C83.7338 25.7131 83.9213 26.608 83.9213 27.6648V36H80.8361V28.142C80.8361 27.2614 80.6088 26.5767 80.1542 26.0881C79.7054 25.5937 79.0747 25.3466 78.2622 25.3466C77.7167 25.3466 77.2281 25.4659 76.7963 25.7045C76.3701 25.9375 76.0349 26.2756 75.7906 26.7188C75.552 27.1619 75.4326 27.6989 75.4326 28.3295ZM90.3532 36.2642C89.5237 36.2642 88.7765 36.1165 88.1117 35.821C87.4526 35.5199 86.9299 35.0767 86.5436 34.4915C86.1629 33.9062 85.9725 33.1847 85.9725 32.3267C85.9725 31.5881 86.1089 30.9773 86.3816 30.4943C86.6543 30.0114 87.0265 29.625 87.4981 29.3352C87.9697 29.0455 88.5009 28.8267 89.0918 28.679C89.6884 28.5256 90.3049 28.4148 90.9413 28.3466C91.7083 28.267 92.3305 28.196 92.8078 28.1335C93.285 28.0653 93.6316 27.9631 93.8475 27.8267C94.0691 27.6847 94.1799 27.4659 94.1799 27.1705V27.1193C94.1799 26.4773 93.9896 25.9801 93.6089 25.6278C93.2282 25.2756 92.6799 25.0994 91.964 25.0994C91.2083 25.0994 90.6089 25.2642 90.1657 25.5938C89.7282 25.9233 89.4328 26.3125 89.2793 26.7614L86.3987 26.3523C86.6259 25.5568 87.0009 24.892 87.5237 24.358C88.0464 23.8182 88.6856 23.4148 89.4413 23.1477C90.197 22.875 91.0322 22.7386 91.947 22.7386C92.5776 22.7386 93.2055 22.8125 93.8305 22.9602C94.4555 23.108 95.0265 23.3523 95.5436 23.6932C96.0606 24.0284 96.4754 24.4858 96.7879 25.0653C97.1061 25.6449 97.2651 26.3693 97.2651 27.2386V36H94.2992V34.2017H94.197C94.0095 34.5653 93.7453 34.9062 93.4043 35.2244C93.0691 35.5369 92.6458 35.7898 92.1345 35.983C91.6288 36.1705 91.035 36.2642 90.3532 36.2642ZM91.1543 33.9972C91.7737 33.9972 92.3106 33.875 92.7651 33.6307C93.2197 33.3807 93.5691 33.0511 93.8134 32.642C94.0634 32.233 94.1884 31.7869 94.1884 31.304V29.7614C94.0918 29.8409 93.9271 29.9148 93.6941 29.983C93.4668 30.0511 93.2112 30.1108 92.9271 30.1619C92.643 30.2131 92.3617 30.2585 92.0833 30.2983C91.8049 30.3381 91.5634 30.3722 91.3589 30.4006C90.8987 30.4631 90.4867 30.5653 90.1231 30.7074C89.7595 30.8494 89.4725 31.0483 89.2623 31.304C89.0521 31.554 88.947 31.8778 88.947 32.2756C88.947 32.8438 89.1543 33.2727 89.5691 33.5625C89.9839 33.8523 90.5123 33.9972 91.1543 33.9972ZM110.234 26.3693L107.422 26.6761C107.342 26.392 107.203 26.125 107.004 25.875C106.811 25.625 106.549 25.4233 106.22 25.2699C105.89 25.1165 105.487 25.0398 105.01 25.0398C104.368 25.0398 103.828 25.179 103.39 25.4574C102.958 25.7358 102.745 26.0966 102.751 26.5398C102.745 26.9205 102.885 27.2301 103.169 27.4688C103.458 27.7074 103.936 27.9034 104.6 28.0568L106.833 28.5341C108.072 28.8011 108.993 29.2244 109.595 29.804C110.203 30.3835 110.51 31.142 110.515 32.0795C110.51 32.9034 110.268 33.6307 109.791 34.2614C109.319 34.8864 108.663 35.375 107.822 35.7273C106.981 36.0795 106.015 36.2557 104.924 36.2557C103.322 36.2557 102.032 35.9205 101.055 35.25C100.078 34.5739 99.4954 33.6335 99.3079 32.429L102.316 32.1392C102.453 32.7301 102.743 33.1761 103.186 33.4773C103.629 33.7784 104.206 33.929 104.916 33.929C105.649 33.929 106.237 33.7784 106.68 33.4773C107.129 33.1761 107.353 32.804 107.353 32.3608C107.353 31.9858 107.208 31.6761 106.919 31.4318C106.635 31.1875 106.191 31 105.589 30.8693L103.356 30.4006C102.1 30.1392 101.172 29.6989 100.569 29.0795C99.967 28.4545 99.6687 27.6648 99.6743 26.7102C99.6687 25.9034 99.8874 25.2045 100.331 24.6136C100.779 24.017 101.402 23.5568 102.197 23.233C102.998 22.9034 103.922 22.7386 104.967 22.7386C106.501 22.7386 107.708 23.0653 108.589 23.7188C109.475 24.3722 110.024 25.2557 110.234 26.3693ZM112.579 36V22.9091H115.571V25.0909H115.707C115.946 24.3352 116.355 23.7528 116.934 23.3438C117.52 22.929 118.187 22.7216 118.937 22.7216C119.108 22.7216 119.298 22.7301 119.508 22.7472C119.724 22.7585 119.903 22.7784 120.045 22.8068V25.6449C119.915 25.5994 119.707 25.5597 119.423 25.5256C119.145 25.4858 118.875 25.4659 118.613 25.4659C118.051 25.4659 117.545 25.5881 117.096 25.8324C116.653 26.071 116.304 26.4034 116.048 26.8295C115.792 27.2557 115.665 27.7472 115.665 28.304V36H112.579ZM125.148 36.2642C124.318 36.2642 123.571 36.1165 122.906 35.821C122.247 35.5199 121.724 35.0767 121.338 34.4915C120.957 33.9062 120.767 33.1847 120.767 32.3267C120.767 31.5881 120.903 30.9773 121.176 30.4943C121.449 30.0114 121.821 29.625 122.292 29.3352C122.764 29.0455 123.295 28.8267 123.886 28.679C124.483 28.5256 125.099 28.4148 125.736 28.3466C126.503 28.267 127.125 28.196 127.602 28.1335C128.079 28.0653 128.426 27.9631 128.642 27.8267C128.863 27.6847 128.974 27.4659 128.974 27.1705V27.1193C128.974 26.4773 128.784 25.9801 128.403 25.6278C128.023 25.2756 127.474 25.0994 126.758 25.0994C126.003 25.0994 125.403 25.2642 124.96 25.5938C124.523 25.9233 124.227 26.3125 124.074 26.7614L121.193 26.3523C121.42 25.5568 121.795 24.892 122.318 24.358C122.841 23.8182 123.48 23.4148 124.236 23.1477C124.991 22.875 125.827 22.7386 126.741 22.7386C127.372 22.7386 128 22.8125 128.625 22.9602C129.25 23.108 129.821 23.3523 130.338 23.6932C130.855 24.0284 131.27 24.4858 131.582 25.0653C131.9 25.6449 132.06 26.3693 132.06 27.2386V36H129.094V34.2017H128.991C128.804 34.5653 128.54 34.9062 128.199 35.2244C127.863 35.5369 127.44 35.7898 126.929 35.983C126.423 36.1705 125.829 36.2642 125.148 36.2642ZM125.949 33.9972C126.568 33.9972 127.105 33.875 127.56 33.6307C128.014 33.3807 128.363 33.0511 128.608 32.642C128.858 32.233 128.983 31.7869 128.983 31.304V29.7614C128.886 29.8409 128.721 29.9148 128.488 29.983C128.261 30.0511 128.006 30.1108 127.721 30.1619C127.437 30.2131 127.156 30.2585 126.878 30.2983C126.599 30.3381 126.358 30.3722 126.153 30.4006C125.693 30.4631 125.281 30.5653 124.917 30.7074C124.554 30.8494 124.267 31.0483 124.057 31.304C123.846 31.554 123.741 31.8778 123.741 32.2756C123.741 32.8438 123.949 33.2727 124.363 33.5625C124.778 33.8523 125.307 33.9972 125.949 33.9972ZM140.291 36V18.5455H143.453V26.5653H143.666L150.476 18.5455H154.337L147.587 26.3778L154.396 36H150.595L145.388 28.517L143.453 30.8011V36H140.291ZM159.002 28.3295V36H155.917V18.5455H158.934V25.1335H159.088C159.394 24.3949 159.869 23.8125 160.511 23.3864C161.159 22.9545 161.982 22.7386 162.982 22.7386C163.892 22.7386 164.684 22.929 165.36 23.3097C166.036 23.6903 166.559 24.2472 166.928 24.9801C167.303 25.7131 167.491 26.608 167.491 27.6648V36H164.406V28.142C164.406 27.2614 164.178 26.5767 163.724 26.0881C163.275 25.5937 162.644 25.3466 161.832 25.3466C161.286 25.3466 160.798 25.4659 160.366 25.7045C159.94 25.9375 159.605 26.2756 159.36 26.7188C159.122 27.1619 159.002 27.6989 159.002 28.3295ZM173.923 36.2642C173.093 36.2642 172.346 36.1165 171.681 35.821C171.022 35.5199 170.5 35.0767 170.113 34.4915C169.733 33.9062 169.542 33.1847 169.542 32.3267C169.542 31.5881 169.679 30.9773 169.951 30.4943C170.224 30.0114 170.596 29.625 171.068 29.3352C171.539 29.0455 172.071 28.8267 172.662 28.679C173.258 28.5256 173.875 28.4148 174.511 28.3466C175.278 28.267 175.9 28.196 176.377 28.1335C176.855 28.0653 177.201 27.9631 177.417 27.8267C177.639 27.6847 177.75 27.4659 177.75 27.1705V27.1193C177.75 26.4773 177.559 25.9801 177.179 25.6278C176.798 25.2756 176.25 25.0994 175.534 25.0994C174.778 25.0994 174.179 25.2642 173.735 25.5938C173.298 25.9233 173.002 26.3125 172.849 26.7614L169.968 26.3523C170.196 25.5568 170.571 24.892 171.093 24.358C171.616 23.8182 172.255 23.4148 173.011 23.1477C173.767 22.875 174.602 22.7386 175.517 22.7386C176.147 22.7386 176.775 22.8125 177.4 22.9602C178.025 23.108 178.596 23.3523 179.113 23.6932C179.63 24.0284 180.045 24.4858 180.358 25.0653C180.676 25.6449 180.835 26.3693 180.835 27.2386V36H177.869V34.2017H177.767C177.579 34.5653 177.315 34.9062 176.974 35.2244C176.639 35.5369 176.216 35.7898 175.704 35.983C175.198 36.1705 174.605 36.2642 173.923 36.2642ZM174.724 33.9972C175.343 33.9972 175.88 33.875 176.335 33.6307C176.789 33.3807 177.139 33.0511 177.383 32.642C177.633 32.233 177.758 31.7869 177.758 31.304V29.7614C177.662 29.8409 177.497 29.9148 177.264 29.983C177.037 30.0511 176.781 30.1108 176.497 30.1619C176.213 30.2131 175.931 30.2585 175.653 30.2983C175.375 30.3381 175.133 30.3722 174.929 30.4006C174.468 30.4631 174.056 30.5653 173.693 30.7074C173.329 30.8494 173.042 31.0483 172.832 31.304C172.622 31.554 172.517 31.8778 172.517 32.2756C172.517 32.8438 172.724 33.2727 173.139 33.5625C173.554 33.8523 174.082 33.9972 174.724 33.9972ZM189.994 22.9091V25.2955H182.468V22.9091H189.994ZM184.326 19.7727H187.412V32.0625C187.412 32.4773 187.474 32.7955 187.599 33.017C187.73 33.233 187.9 33.3807 188.111 33.4602C188.321 33.5398 188.554 33.5795 188.809 33.5795C189.003 33.5795 189.179 33.5653 189.338 33.5369C189.503 33.5085 189.628 33.483 189.713 33.4602L190.233 35.8722C190.068 35.929 189.832 35.9915 189.525 36.0597C189.224 36.1278 188.855 36.1676 188.417 36.179C187.645 36.2017 186.949 36.0852 186.329 35.8295C185.71 35.5682 185.218 35.1648 184.855 34.6193C184.497 34.0739 184.321 33.392 184.326 32.5739V19.7727ZM195.861 36.2642C195.032 36.2642 194.285 36.1165 193.62 35.821C192.961 35.5199 192.438 35.0767 192.052 34.4915C191.671 33.9062 191.481 33.1847 191.481 32.3267C191.481 31.5881 191.617 30.9773 191.89 30.4943C192.162 30.0114 192.535 29.625 193.006 29.3352C193.478 29.0455 194.009 28.8267 194.6 28.679C195.197 28.5256 195.813 28.4148 196.449 28.3466C197.216 28.267 197.839 28.196 198.316 28.1335C198.793 28.0653 199.14 27.9631 199.356 27.8267C199.577 27.6847 199.688 27.4659 199.688 27.1705V27.1193C199.688 26.4773 199.498 25.9801 199.117 25.6278C198.736 25.2756 198.188 25.0994 197.472 25.0994C196.716 25.0994 196.117 25.2642 195.674 25.5938C195.236 25.9233 194.941 26.3125 194.787 26.7614L191.907 26.3523C192.134 25.5568 192.509 24.892 193.032 24.358C193.555 23.8182 194.194 23.4148 194.949 23.1477C195.705 22.875 196.54 22.7386 197.455 22.7386C198.086 22.7386 198.714 22.8125 199.339 22.9602C199.964 23.108 200.535 23.3523 201.052 23.6932C201.569 24.0284 201.983 24.4858 202.296 25.0653C202.614 25.6449 202.773 26.3693 202.773 27.2386V36H199.807V34.2017H199.705C199.518 34.5653 199.253 34.9062 198.912 35.2244C198.577 35.5369 198.154 35.7898 197.643 35.983C197.137 36.1705 196.543 36.2642 195.861 36.2642ZM196.662 33.9972C197.282 33.9972 197.819 33.875 198.273 33.6307C198.728 33.3807 199.077 33.0511 199.322 32.642C199.572 32.233 199.697 31.7869 199.697 31.304V29.7614C199.6 29.8409 199.435 29.9148 199.202 29.983C198.975 30.0511 198.719 30.1108 198.435 30.1619C198.151 30.2131 197.87 30.2585 197.591 30.2983C197.313 30.3381 197.072 30.3722 196.867 30.4006C196.407 30.4631 195.995 30.5653 195.631 30.7074C195.268 30.8494 194.981 31.0483 194.77 31.304C194.56 31.554 194.455 31.8778 194.455 32.2756C194.455 32.8438 194.662 33.2727 195.077 33.5625C195.492 33.8523 196.02 33.9972 196.662 33.9972ZM213.739 30.4943V22.9091H216.825V36H213.833V33.6733H213.697C213.401 34.4062 212.915 35.0057 212.239 35.4716C211.569 35.9375 210.742 36.1705 209.759 36.1705C208.901 36.1705 208.143 35.9801 207.484 35.5994C206.83 35.2131 206.319 34.6534 205.95 33.9205C205.58 33.1818 205.396 32.2898 205.396 31.2443V22.9091H208.481V30.767C208.481 31.5966 208.708 32.2557 209.163 32.7443C209.617 33.233 210.214 33.4773 210.952 33.4773C211.407 33.4773 211.847 33.3665 212.273 33.1449C212.7 32.9233 213.049 32.5938 213.322 32.1562C213.6 31.7131 213.739 31.1591 213.739 30.4943ZM222.602 28.3295V36H219.517V22.9091H222.466V25.1335H222.619C222.921 24.4006 223.401 23.8182 224.06 23.3864C224.724 22.9545 225.546 22.7386 226.523 22.7386C227.426 22.7386 228.213 22.9318 228.884 23.3182C229.56 23.7045 230.082 24.2642 230.452 24.9972C230.827 25.7301 231.011 26.6193 231.006 27.6648V36H227.921V28.142C227.921 27.267 227.693 26.5824 227.239 26.0881C226.79 25.5937 226.168 25.3466 225.372 25.3466C224.832 25.3466 224.352 25.4659 223.932 25.7045C223.517 25.9375 223.19 26.2756 222.952 26.7188C222.719 27.1619 222.602 27.6989 222.602 28.3295ZM233.662 36V22.9091H236.747V36H233.662ZM235.213 21.0511C234.725 21.0511 234.304 20.8892 233.952 20.5653C233.6 20.2358 233.423 19.8409 233.423 19.3807C233.423 18.9148 233.6 18.5199 233.952 18.196C234.304 17.8665 234.725 17.7017 235.213 17.7017C235.708 17.7017 236.128 17.8665 236.475 18.196C236.827 18.5199 237.003 18.9148 237.003 19.3807C237.003 19.8409 236.827 20.2358 236.475 20.5653C236.128 20.8892 235.708 21.0511 235.213 21.0511Z" fill="black"/>
<path d="M7 44.3333C7 45.571 7.49167 46.758 8.36683 47.6332C9.242 48.5083 10.429 49 11.6667 49H44.3333C45.571 49 46.758 48.5083 47.6332 47.6332C48.5083 46.758 49 45.571 49 44.3333V11.6667C49 10.429 48.5083 9.242 47.6332 8.36683C46.758 7.49167 45.571 7 44.3333 7H11.6667C10.429 7 9.242 7.49167 8.36683 8.36683C7.49167 9.242 7 10.429 7 11.6667V44.3333ZM28 14H42V28H37.3333V18.6667H28V14ZM14 28H18.6667V37.3333H28V42H14V28Z" fill="#3E63DD"/>
</svg>
